<svg width="1006" height="688" viewBox="0 0 1006 688" fill="none" xmlns="http://www.w3.org/2000/svg">
<path d="M606.034 0.557129C605.007 0.750366 601.648 2.87598 598.569 5.19482C595.49 7.61029 592.224 9.83252 591.384 10.1224C590.451 10.4122 586.812 9.05957 582.987 7.1272C577.481 4.13202 575.615 3.64893 572.349 4.13202C570.11 4.32526 567.404 5.29144 566.191 6.06439C563.392 7.99677 560.219 14.5668 559.193 20.5572C558.353 25.9678 555.834 28.48 550.142 29.8326C546.783 30.6056 546.69 30.509 544.824 26.8374C542.584 22.1031 540.345 21.1369 531.014 21.0403C523.27 20.9437 521.217 21.62 510.953 27.8036C506.941 30.2191 505.448 30.6056 500.036 30.509C491.732 30.2191 489.679 31.8616 484.267 42.9728C473.443 65.0018 470.178 75.1469 470.178 86.1614C470.178 90.316 470.457 93.9875 470.644 94.4706C471.391 95.7266 468.685 97.7556 467.098 97.1759C466.352 96.886 464.859 93.9875 463.739 90.8957C461.313 84.0358 457.674 79.9778 453.755 79.8812C452.262 79.7845 447.69 80.3643 443.585 81.0406C437.147 82.1034 435.56 82.1034 430.895 80.6541C423.99 78.6251 420.071 78.7217 414.286 81.0406L409.621 82.973V76.4029C409.621 67.6106 408.408 66.0646 401.503 65.1951C393.292 64.2289 388.44 66.1613 381.535 72.9246C378.456 76.113 375.564 78.7217 375.097 78.915C373.977 79.3981 369.592 76.0164 369.499 74.6638C369.499 72.1517 365.58 69.4464 362.034 69.4464C359.141 69.4464 358.115 68.9633 357.275 67.2241C356.622 66.0646 355.689 64.8086 355.129 64.4221C353.356 63.1661 348.504 63.5526 346.452 65.0984C340.573 69.3497 335.908 69.543 332.362 65.8714C330.589 64.1323 329.563 64.3255 328.257 66.5478C326.764 68.9633 325.924 68.9633 325.177 66.6444C324.431 64.1323 320.512 62.8762 310.248 61.8134C305.676 61.3303 301.757 60.5574 301.664 60.1709C300.451 56.596 296.625 51.282 294.013 49.4462C291.12 47.4172 289.814 47.224 279.27 47.224C267.14 47.224 262.101 46.0646 251.464 40.9438C244.933 37.852 235.229 33.6008 231.87 32.538C229.537 31.6684 187.828 30.4124 167.954 30.509C159.836 30.6056 154.984 32.9244 146.96 40.8472C143.414 44.3254 140.055 47.3206 139.495 47.3206C135.389 47.9003 133.243 47.7071 124.379 46.2578C113.835 44.4221 111.783 44.7119 108.703 48.1902C104.878 52.6346 106.371 79.2048 111.036 90.2194C111.969 92.345 113.742 96.4996 114.955 99.3981C116.261 102.393 117.848 105.389 118.594 106.161C121.673 109.447 128.765 118.529 128.765 119.108C128.765 119.398 128.018 119.688 126.992 119.688C125.126 119.688 122.886 121.91 122.606 124.036C122.513 124.809 123.446 126.065 124.659 126.838C126.712 128.287 126.712 128.577 125.499 131.959C124.846 133.988 122.98 138.239 121.487 141.524C119.061 146.645 117.661 148.094 111.969 151.959C108.33 154.471 100.212 161.234 94.0542 166.838C87.8959 172.539 78.5651 180.171 73.4332 183.843C63.076 191.186 59.2504 194.471 50.6661 203.457C37.9762 216.79 37.0432 219.689 37.0432 245.003C37.0432 258.916 36.7632 262.684 35.8302 262.684C33.4975 262.684 25.6596 265.776 22.6738 267.805C19.3147 270.22 15.8623 277.273 15.8623 282.008C15.8623 283.94 14.9292 286.066 13.1564 288.095C6.065 296.211 0 305.873 0 308.964C0 311.96 0.746462 313.216 10.5438 326.742C15.3025 333.312 19.9678 340.462 20.9009 342.588C22.3005 345.873 23.4202 346.839 26.9659 348.192C29.2986 349.061 32.3778 350.221 33.6841 350.704C35.0837 351.283 36.5766 352.733 37.2298 354.085C39.2825 358.723 44.7877 359.11 52.3456 354.955C54.8649 353.602 57.1043 352.539 57.3842 352.539C57.5709 352.539 58.7839 354.858 60.0902 357.66C62.7961 363.844 64.8489 365.003 74.4595 365.486C82.8572 366.066 86.5895 366.839 89.3888 368.675C92.2813 370.511 108.517 373.699 115.888 373.892C119.154 373.989 124.566 373.699 127.925 373.312L133.99 372.636L138.189 376.887C140.521 379.11 143.601 382.781 145.093 384.907C149.106 390.8 151.065 392.153 156.104 392.153C161.236 392.153 163.288 391.187 167.674 386.839C171.406 383.168 183.163 376.694 186.242 376.694C187.455 376.694 188.482 376.308 188.482 375.825C188.482 375.245 189.415 375.052 190.628 375.341C191.747 375.535 198.186 376.114 204.81 376.694C216.007 377.564 217.407 377.467 223.099 375.631C229.724 373.602 233.363 370.317 241.667 358.916C243.72 356.114 246.426 353.312 247.732 352.733C251.464 350.994 263.688 347.998 273.858 346.356C278.99 345.486 285.055 344.423 287.388 343.844C302.784 340.462 316.126 345.39 335.908 361.815C344.679 369.061 350.277 371.187 360.541 371.09C365.206 370.994 369.405 371.38 370.058 371.96C370.712 372.443 372.298 375.245 373.791 378.143C376.683 384.23 378.829 385.97 385.174 387.419C391.612 388.771 392.266 390.8 389.373 398.916C388.067 402.395 386.854 408.288 386.574 411.96C386.014 419.496 387.414 423.651 392.639 429.351C396.744 433.892 408.501 442.395 410.741 442.395C412.513 442.395 412.607 442.781 412.047 446.453C410.367 458.627 410.274 462.685 411.86 466.936C413.54 471.574 417.832 476.115 422.871 478.53C424.55 479.4 428.469 482.395 431.548 485.294L437.147 490.414L434.907 495.149C433.601 497.758 431.641 501.332 430.335 503.265C428.936 505.39 428.282 507.613 428.469 509.255C428.842 511.381 428.656 511.671 427.629 510.801C425.856 509.352 419.418 510.415 416.526 512.83L414.006 514.859L412.233 511.188C409.994 506.743 407.195 504.231 404.582 504.231C402.25 504.231 393.759 509.642 393.759 511.188C393.759 511.767 392.546 510.801 391.053 509.159C387.973 505.777 384.241 505.197 379.669 507.613C375.937 509.642 375.377 511.671 375.19 522.492C375.004 540.366 373.884 543.651 366.699 549.062C364.18 550.994 362.034 552.83 361.941 553.217C361.381 558.724 360.074 561.333 353.543 569.159C349.997 573.41 347.105 577.565 347.105 578.434C347.011 580.946 345.238 582.879 339.453 586.647C333.015 590.995 331.242 593.41 331.242 598.144C331.242 601.333 331.989 602.589 336.654 607.516C339.547 610.608 343.279 613.797 344.772 614.57C357.462 620.946 375.284 618.434 389.84 608.289C395.718 604.135 399.824 603.169 404.676 604.715C413.073 607.516 417.085 612.154 417.085 619.207C417.085 621.816 417.365 622.203 419.138 621.913C422.031 621.526 424.55 612.734 425.203 600.85C425.763 589.835 426.976 587.613 436.96 578.434C440.692 575.149 444.145 571.864 444.611 571.284C445.171 570.705 448.53 567.71 452.076 564.521C460.567 557.081 467.565 549.642 472.79 542.395C478.202 534.956 480.068 531.091 483.334 520.753C485.667 513.506 486.32 512.25 489.119 510.801C490.799 509.931 492.851 509.159 493.598 509.062C494.344 509.062 496.77 508.386 498.916 507.613C504.142 505.777 520.937 502.782 536.893 500.849C551.449 499.11 554.994 499.497 564.885 504.231L570.39 506.936L560.313 507.613C554.808 507.999 546.503 508.096 542.024 507.902C536.053 507.516 533.72 507.709 533.44 508.579C532.787 510.125 533.533 511.188 538.385 515.342C541.558 518.047 542.584 519.69 542.771 521.912C542.958 526.26 549.023 531.381 558.26 535.149C562.459 536.888 568.057 539.497 570.577 541.043C573.189 542.492 577.668 544.424 580.561 545.391C586.346 547.226 589.891 546.936 605.1 543.362C608.739 542.492 614.338 541.719 617.697 541.719C622.922 541.622 624.508 542.106 629.267 544.811C634.212 547.613 635.239 547.903 639.718 547.323C643.823 546.84 644.756 547.033 644.756 548.193C644.756 548.965 645.596 550.511 646.529 551.478C648.302 553.313 648.209 553.41 637.012 559.207C617.604 569.159 605.287 576.985 594.837 586.26C586.346 593.7 584.106 597.468 584.106 604.231C584.106 608 584.573 609.256 586.999 611.671L589.798 614.666L601.368 614.087C616.017 613.41 618.35 613.99 623.669 620.463C626.001 623.265 628.801 626.067 630.014 626.647C631.227 627.227 634.119 628.579 636.638 629.739C652.407 636.985 652.594 637.082 651.754 643.555C649.608 661.043 648.582 664.618 645.223 667.903C643.45 669.642 641.957 671.768 641.957 672.541C641.957 674.57 649.142 681.043 653.714 682.976C659.126 685.391 672.002 688 678.534 688C685.065 688 688.331 686.068 696.075 677.662C717.723 654.183 719.682 652.444 724.721 651.188C727.707 650.415 731.532 650.222 734.705 650.608C739.277 651.188 740.583 650.995 744.875 648.773C750.66 645.874 759.711 636.405 762.044 630.898C762.884 628.773 764.283 626.84 765.123 626.647C765.963 626.454 769.882 627.227 773.987 628.483C782.198 630.995 787.144 631.285 792.182 629.835C793.955 629.256 797.781 628.579 800.58 628.29C813.643 627.033 821.014 624.908 823.161 621.623C823.534 621.14 824.28 618.628 824.747 616.212C825.307 613.797 827.453 608.676 829.599 604.811C836.784 591.864 834.171 586.647 819.335 584.425C811.87 583.362 810.844 583.362 807.672 584.908C805.712 585.874 803.286 587.903 802.166 589.449C799.927 592.541 796.101 593.024 792.182 590.705C788.45 588.483 783.598 588.966 779.493 591.768C774.454 595.342 770.442 596.985 766.709 596.985C762.044 596.985 753.553 589.545 743.756 576.888C729.106 558.144 727.24 554.473 725.841 542.202L725.001 534.376L731.532 527.806C740.117 519.207 743.289 517.275 746.182 518.627C749.821 520.366 750.66 519.98 755.139 513.893C760.644 506.55 766.15 502.492 777.253 497.274C782.105 495.052 787.61 492.25 789.477 491.091C791.716 489.642 793.209 489.255 794.142 489.835C794.888 490.318 796.754 490.704 798.434 490.704C800.767 490.704 802.073 489.931 804.406 486.84C808.698 481.332 816.349 478.82 826.333 479.69L833.704 480.27L837.717 475.632C847.047 464.521 849.94 462.395 857.218 461.622C864.216 460.849 865.896 459.593 870.747 451.091L873.827 445.777L880.825 445.68C885.957 445.68 889.036 445.1 892.208 443.458C896.5 441.429 896.874 441.429 901.073 442.878C905.551 444.424 910.776 444.231 912.923 442.298C913.482 441.815 914.789 440.752 915.815 440.076C917.308 438.917 917.681 437.564 917.681 432.54C917.681 428.289 918.148 425.776 919.361 424.037C922.067 419.979 921.414 416.888 917.215 413.892C915.162 412.443 913.482 410.704 913.482 410.124C913.482 409.545 914.602 405.873 916.002 402.008C918.801 394.279 920.667 392.636 929.065 390.317C933.357 389.061 935.596 386.453 938.116 379.593C939.049 377.177 941.381 373.312 943.341 371.09L946.98 366.839L962.656 365.969C986.262 364.713 991.488 363.264 994.38 357.274C994.94 356.018 996.153 350.414 996.993 344.81C998.952 331.766 998.952 331.67 1002.59 327.515C1007.26 322.201 1007.16 320.559 1002.12 318.626C998.112 317.08 997.926 316.887 997.366 312.346C996.62 306.066 995.593 303.554 990.555 296.501C987.289 291.959 986.262 289.641 986.262 286.935C986.262 282.394 986.822 281.718 992.327 279.206C998.299 276.5 1001.19 273.602 1001.19 270.413C1001.19 266.259 998.206 264.326 990.648 263.65C986.916 263.264 984.863 262.877 985.982 262.781C988.129 262.684 991.674 258.723 995.313 252.346C1002.12 240.462 1003.99 236.693 1003.99 235.051C1003.99 234.085 1002.31 230.413 1000.26 226.935C998.206 223.457 996.526 220.172 996.526 219.592C996.526 219.012 997.553 216.887 998.859 214.954C1001.75 210.51 1001.84 207.225 999.139 205.292C996.153 203.07 994.66 203.36 989.622 206.742C985.609 209.544 984.77 209.737 979.264 209.35C973.479 208.964 973.013 208.771 968.814 204.423C964.428 199.785 961.629 198.529 953.325 197.466C949.966 196.983 947.913 195.92 944.647 193.022C942.315 190.993 940.075 189.254 939.702 189.254C939.235 189.254 937.276 189.93 935.316 190.8C930.371 192.925 922.253 191.186 916.562 186.645C912.083 183.07 911.056 182.877 908.817 184.906C907.511 186.162 906.951 186.065 903.592 183.746C901.632 182.297 899.766 180.848 899.486 180.558C898.18 178.722 892.022 176.403 888.569 176.403C883.251 176.403 880.825 178.626 880.825 183.843C880.825 191.089 880.172 191.089 869.721 185.002C859.644 179.109 857.498 176.886 857.498 172.539C857.498 168.77 855.258 165.002 851.339 162.394C848.447 160.461 848.167 159.882 848.167 155.437C848.167 151.572 847.794 150.51 846.208 149.543C844.621 148.674 843.222 149.06 838.463 151.476C835.197 153.118 830.998 155.534 829.039 156.983C826.52 158.722 823.254 159.785 818.868 160.461C811.497 161.524 808.605 162.78 805.339 166.452C802.726 169.254 800.953 169.543 798.247 167.418C796.848 166.355 794.888 166.162 789.85 166.645C783.411 167.225 783.225 167.128 776.507 163.07C770.442 159.495 768.949 158.915 763.817 158.915C758.125 158.819 754.113 160.075 751.314 162.877C747.861 166.355 738.81 161.524 737.038 155.437C736.104 152.442 736.291 150.606 737.597 145.485C739.464 138.239 738.997 136.596 732.559 129.35C728.36 124.616 727.24 121.91 728.173 118.239C728.453 116.886 729.013 114.761 729.293 113.408C730.226 109.736 727.613 107.418 721.735 106.645C717.443 106.161 716.603 105.678 715.67 103.263C713.617 98.0455 711.844 97.2725 702.42 97.0793C695.142 96.9827 693.09 96.4996 689.544 94.5672C686.558 92.9247 683.479 92.0551 679 91.8619C673.215 91.4754 672.655 91.2822 672.842 89.3498C673.215 83.9391 672.749 82.8763 669.483 81.4271L666.31 80.0744L668.55 75.5333C671.442 70.0261 671.442 67.9971 668.643 65.0984L666.497 62.8762L670.509 61.2337C675.641 59.2047 679.28 56.2095 679.28 54.0839C679.28 53.0211 676.761 50.6057 672.562 47.8037C665.004 42.7795 660.432 37.2723 657.726 29.9293C656.326 26.0645 656.233 24.5186 656.98 22.3929C658.566 17.9485 657.259 13.6006 653.62 11.7649C651.941 10.8953 649.981 9.05957 649.328 7.70691C645.129 -0.892151 643.17 -1.6651 635.985 2.29626C633.559 3.64893 630.76 4.71173 629.827 4.71173C628.801 4.71173 624.322 3.64893 619.936 2.29626C612.192 -0.022583 610.046 -0.312439 606.034 0.557129ZM618.63 7.61029C625.442 10.1224 633.093 10.1224 637.665 7.61029C641.864 5.48468 642.61 5.67792 644.383 10.1224C645.129 11.9581 647.182 14.3736 648.955 15.533C652.034 17.6586 652.221 18.0451 651.661 21.7166C651.288 24.6152 651.474 25.9678 652.594 26.8374C653.434 27.6104 654.087 29.2529 654.087 30.7022C654.087 37.079 662.578 48.9631 669.483 52.2482C670.789 52.8279 671.815 53.6008 671.815 53.9873C671.815 54.3738 669.669 55.6298 666.963 56.9825C664.351 58.2385 661.552 60.2675 660.898 61.4269C659.685 63.3593 659.779 63.7458 662.578 66.5478L665.657 69.543L663.604 73.8908C660.339 80.6541 660.898 83.9391 665.564 85.7749C667.057 86.3546 667.897 87.3208 667.617 87.8039C666.59 89.543 668.083 94.0841 670.136 95.4368C671.256 96.1131 674.241 96.6928 676.761 96.5962C679.84 96.5962 682.919 97.2725 686.092 98.915C692.53 102.007 695.236 102.587 702.98 102.683C709.512 102.78 709.605 102.876 710.911 105.872C712.404 109.253 715.017 110.992 720.056 111.862C722.948 112.442 723.508 112.925 723.321 114.374C722.108 121.427 723.321 126.162 727.52 130.799C728.453 131.862 730.133 134.278 731.253 136.113C733.119 139.302 733.119 139.785 731.719 145.389C729.48 155.051 731.812 161.814 739.184 166.741C744.409 170.22 751.314 170.51 755.233 167.321C760.644 162.877 766.896 163.553 775.854 169.35C779.959 171.959 781.359 172.345 787.704 172.442C791.623 172.442 795.448 172.925 796.101 173.601C797.034 174.374 798.994 174.471 802.446 173.891C806.272 173.215 807.951 172.345 809.911 170.123C812.057 167.611 813.363 167.031 819.615 166.162C826.893 165.099 827.826 164.712 836.97 158.722C842.102 155.437 842.102 155.34 842.382 157.563C843.128 163.07 844.528 165.679 847.887 167.514C851.06 169.254 851.526 170.026 852.179 174.471C853.206 181.041 855.538 183.36 867.109 190.027C881.571 198.336 886.143 196.983 885.677 184.616C885.583 183.457 885.957 182.394 886.423 182.394C886.983 182.297 887.916 182.2 888.569 182.104C890.622 181.717 893.888 183.36 898.926 187.321C903.498 190.896 904.245 191.186 907.791 190.606C910.59 190.123 912.083 190.316 913.296 191.379C918.241 195.92 930.371 199.012 935.503 197.08C938.396 196.017 938.862 196.114 942.128 198.819C944.74 200.945 947.633 202.104 953.605 203.263C960.696 204.713 961.909 205.292 964.895 208.577C969.56 213.698 973.386 215.437 979.544 215.534C985.982 215.631 988.502 214.858 992.794 211.573L996.06 209.061L994.38 211.476C990.088 217.949 990.275 222.587 995.22 229.254C996.993 231.669 998.392 234.085 998.392 234.664C998.392 235.727 993.167 245.003 988.035 253.119C986.542 255.534 984.583 257.08 982.344 257.756C978.051 259.109 975.999 261.138 975.999 264.133C975.999 267.322 977.958 268.095 986.636 268.868C990.741 269.157 994.474 269.834 994.847 270.22C995.593 270.993 990.368 274.278 988.409 274.278C987.942 274.278 986.169 275.534 984.396 276.984C981.597 279.496 981.224 280.365 980.851 285.583C980.571 289.254 980.944 292.249 981.69 293.699C983.65 297.66 988.409 303.264 989.622 303.264C991.021 303.264 991.581 305.293 992.327 313.119C992.981 320.269 993.354 321.138 996.34 322.588C998.486 323.554 998.672 323.844 997.366 324.81C996.526 325.486 995.407 326.839 994.94 327.902C993.914 329.737 991.768 341.235 990.461 350.897C989.995 354.568 989.435 355.728 987.382 356.694C984.023 358.433 972.453 360.076 958.363 360.752C951.552 361.139 945.767 361.911 944.367 362.684C940.355 364.81 936.809 369.351 933.17 376.887C929.905 383.747 929.625 384.037 924.493 385.873C921.6 386.936 918.241 388.771 917.028 389.931C913.762 393.119 908.537 404.52 908.071 409.641C907.697 414.279 908.351 415.245 914.042 418.82C915.722 419.883 915.722 419.979 913.949 422.105C912.643 423.554 912.083 425.776 911.99 429.255C911.803 436.308 911.803 436.211 909.19 437.467C907.231 438.337 905.831 438.24 901.819 436.984C896.874 435.342 896.874 435.342 890.529 437.95C885.117 440.173 883.344 440.559 878.865 439.979C872.054 439.11 870.468 440.076 866.362 447.419C862.256 454.666 860.857 455.825 856.565 455.922C850.686 455.922 846.581 457.757 843.128 461.719C841.262 463.844 839.769 466.163 839.676 466.839C839.676 467.419 837.717 469.448 835.384 471.187C831.278 474.376 830.905 474.472 824.933 473.796C819.615 473.216 817.562 473.506 811.124 475.728C805.059 477.757 803.006 478.917 801.047 481.526C798.807 484.617 798.341 484.811 794.702 484.327C791.343 483.844 789.663 484.327 782.852 487.999C778.466 490.318 771.748 493.7 767.922 495.535C762.884 497.951 759.245 500.656 755.139 505.004C751.873 508.386 749.261 511.381 749.261 511.767C749.261 512.154 747.301 512.444 744.782 512.444C740.023 512.444 739.93 512.444 731.159 520.753C728.08 523.651 724.348 527.13 722.948 528.482C719.776 531.381 719.309 534.086 720.522 543.555C721.642 552.734 726.121 563.072 732.559 571.381C735.078 574.569 739.09 579.787 741.516 582.975C757.192 603.169 767.363 606.937 780.892 597.565C785.931 594.086 786.397 593.99 793.582 596.985C797.781 598.628 801.793 597.371 806.365 592.927L810.377 589.062L817.189 589.545C828.666 590.415 830.625 593.314 825.307 601.333C822.974 604.908 819.242 614.376 819.242 616.695C819.242 619.787 814.203 621.623 802.913 622.686C799.367 622.975 794.235 623.845 791.716 624.425C786.024 625.971 782.105 625.584 774.361 623.072C765.963 620.27 764.003 620.463 760.458 624.715C758.872 626.744 755.326 630.995 752.713 634.28C750.007 637.565 746.088 641.333 743.942 642.782C740.303 645.198 739.464 645.391 734.052 644.811C724.161 643.749 715.483 647.42 708.205 655.826C697.942 667.71 687.584 678.628 684.972 680.27C679.933 683.555 672.935 682.879 652.874 676.985C650.448 676.212 647.835 674.956 646.996 674.087C645.596 672.638 645.783 672.444 648.768 670.898C653.154 668.773 653.527 667.71 656.42 647.227C656.7 645.391 657.166 642.299 657.446 640.463C657.913 637.565 657.539 636.599 655.207 634.183C653.62 632.541 650.168 630.222 647.369 628.966C632.999 622.396 630.947 621.043 626.655 615.826C621.056 609.062 617.977 608.193 604.167 608.966C592.317 609.642 589.611 608.869 588.678 604.135C588.025 600.56 589.518 598.434 598.102 591.091C607.526 582.975 609.859 581.333 623.016 573.507C635.425 566.067 639.344 564.038 650.355 559.207C657.726 555.922 658.472 553.893 653.714 550.125C651.474 548.386 650.075 546.164 649.422 543.748C648.302 539.593 647.929 539.497 641.211 541.043C636.918 542.106 636.359 542.009 630.387 539.014C624.322 535.922 623.949 535.825 615.551 536.405C606.313 537.081 604.541 537.371 596.423 539.497C593.53 540.27 589.798 540.946 588.118 540.946C584.386 540.946 577.388 538.531 573.003 535.729C571.136 534.569 567.591 532.83 564.978 531.864C562.459 530.898 557.887 528.772 554.901 527.13C550.142 524.521 549.676 524.038 551.355 523.361C553.315 522.685 553.875 520.076 552.568 518.241C552.195 517.661 550.329 516.405 548.369 515.342C546.41 514.279 544.637 513.217 544.45 512.927C544.264 512.637 550.702 512.54 558.633 512.733C575.242 513.12 577.108 512.83 577.855 509.835C578.788 506.357 576.082 503.458 568.897 499.98C556.394 493.893 549.769 493.41 525.882 496.501C506.754 499.11 488.373 503.651 483.521 507.13C482.214 508.096 480.348 511.864 478.295 517.758C472.977 533.603 469.244 539.593 457.768 551.091C449.743 559.11 430.522 576.888 428.749 577.951C428.096 578.338 425.95 580.85 423.99 583.652C420.631 588.289 420.445 589.062 420.071 597.178C419.605 605.777 418.765 607.516 416.152 604.231C414.193 601.816 409.434 599.884 403.276 598.917C396.371 597.951 393.572 598.724 386.667 603.458C377.336 609.739 370.991 611.864 361.101 611.864C353.263 611.961 351.677 611.671 347.478 609.352C342.253 606.454 336.841 600.753 336.841 598.048C336.841 596.115 339.827 593.024 343.839 590.898C347.571 588.966 350.277 585.777 352.61 580.56C353.729 578.144 356.715 573.893 359.328 570.995C363.434 566.357 366.793 561.333 366.699 559.787C366.699 559.497 366.699 558.627 366.699 557.854C366.699 557.081 369.032 554.666 371.831 552.54C378.269 547.613 379.669 543.362 380.415 526.453C380.695 519.787 381.349 513.796 381.908 513.12C383.495 511.091 386.107 511.864 388.253 515.052C392.172 520.946 392.825 520.946 397.864 515.439C402.343 510.415 404.862 509.545 406.355 512.637C407.755 515.439 410.554 518.627 412.7 519.787C413.913 520.56 415.499 520.076 419.045 518.047C422.871 515.922 423.99 515.632 425.297 516.598C432.575 522.009 437.147 523.072 441.159 520.076C444.705 517.564 443.585 513.893 438.453 510.994L434.254 508.579L438.266 500.849C443.118 491.477 443.212 489.158 439.293 484.714C436.12 481.236 426.323 473.313 425.11 473.313C424.737 473.313 422.777 471.767 420.818 469.835C416.152 465.39 415.499 462.009 417.085 451.38C418.205 444.134 418.205 442.878 416.899 440.656C416.059 439.207 414.286 437.854 413.073 437.467C408.688 436.211 396.838 426.26 394.132 421.622C391.892 417.661 391.706 416.501 392.172 411.477C392.546 408.385 393.665 403.458 394.692 400.656C397.398 393.216 397.211 388.771 393.852 385.293C392.359 383.747 390.306 382.491 389.28 382.491C384.801 382.491 381.535 380.269 378.736 375.341C373.324 365.583 372.298 365.003 361.381 365.293C351.397 365.486 347.105 363.747 337.681 355.824C334.135 353.023 330.869 350.607 330.403 350.607C329.843 350.607 329.376 350.221 329.376 349.834C329.376 348.578 313.607 340.365 308.009 338.626C301.757 336.694 294.946 336.694 286.175 338.433C282.442 339.206 276.098 340.269 271.992 340.945C267.886 341.525 260.142 343.167 254.917 344.52C244.186 347.322 244.653 347.032 232.616 360.945C223.379 371.573 221.233 372.346 202.104 371.573C182.976 370.704 179.337 371.767 166.648 381.428C163.102 384.134 159.183 386.646 157.97 387.032C154.984 387.709 152.185 386.066 149.479 382.201C146.4 377.564 140.801 371.477 137.909 369.544C135.763 368.095 133.897 367.902 123.913 368.482C111.689 369.254 100.772 367.805 93.5876 364.52C91.6282 363.651 86.4962 362.588 82.1108 362.105C66.9016 360.559 65.3154 359.786 63.3559 353.602C61.1165 346.259 58.4106 345.39 51.5059 350.027C49.6397 351.38 46.7472 352.636 45.0676 353.023C42.6416 353.506 41.8952 353.312 40.9621 351.38C39.3759 348.288 36.8565 346.549 31.3514 344.713C26.9659 343.264 26.3128 342.588 22.3938 335.824C19.9678 331.766 15.9556 325.679 13.4363 322.394C5.59846 312.249 4.66539 310.8 4.66539 309.061C4.66539 307.418 11.6635 297.177 17.3552 290.51C19.5946 287.901 20.3411 286.259 20.1545 284.23C19.5946 279.689 24.4466 270.413 27.2458 270.413C27.7124 270.413 29.8585 269.544 31.9112 268.481C36.1101 266.355 39.6558 265.969 40.5889 267.515C40.8688 267.998 41.8018 268.481 42.6416 268.481C43.4814 268.481 45.1609 269.351 46.2806 270.51C48.7066 272.829 50.3862 272.249 50.3862 269.157C50.3862 267.805 49.1732 266.162 47.2137 264.81C44.5078 262.877 43.9479 261.911 43.3881 257.273C42.2684 247.611 43.2015 222.104 44.7877 219.012C46.7472 215.341 51.7858 209.061 56.8244 204.326C59.0638 202.104 61.5831 199.688 62.4229 198.819C63.8225 197.37 70.5406 192.442 79.2182 186.355C82.2974 184.229 91.0683 176.983 93.8676 174.278C100.679 167.708 108.89 160.751 115.142 156.307C122.233 151.186 122.886 150.51 126.712 142.683C129.511 136.886 130.817 132.925 131.004 129.64C131.097 127.128 131.75 124.036 132.31 122.877C134.456 118.819 133.617 116.113 127.645 108.384C118.967 97.0793 115.235 88.287 112.529 72.1517C111.409 65.0984 111.409 61.0405 112.436 54.2772C113.089 50.6057 115.235 49.6395 120.087 50.9921C122.046 51.5718 125.685 52.2482 128.205 52.538C130.817 52.9245 133.15 53.311 133.523 53.6008C133.897 53.7941 136.416 53.5042 139.122 52.9245C143.321 51.9583 145.093 50.7989 151.252 44.7119C155.264 40.7505 159.09 37.5621 159.929 37.5621C160.676 37.5621 161.422 37.079 161.609 36.4027C161.982 35.3399 170.1 35.2433 211.808 36.0162C229.91 36.3061 231.496 36.6926 247.732 45.0018C260.142 51.282 264.901 52.4414 277.777 52.538C290.654 52.538 290.467 52.4414 296.065 61.2337C299.331 66.4512 301.291 67.3207 311.648 67.514C318.459 67.7072 320.045 68.4802 321.818 72.4415C323.498 76.113 327.323 77.3691 329.283 74.857C330.216 73.7942 331.522 73.5043 334.601 73.9874C337.401 74.3739 339.173 74.084 340.2 73.2145C341.04 72.5381 342.906 72.0551 344.399 72.1517C346.172 72.3449 347.385 71.8618 347.664 70.8956C348.504 68.77 352.423 69.0599 353.17 71.2821C353.823 73.5043 356.342 74.5671 361.194 74.4705C363.9 74.3739 365.02 74.9536 366.139 76.6927C366.979 77.9488 367.632 79.5913 367.632 80.3643C367.632 81.0406 368.659 82.6831 369.872 83.8425C373.231 87.0309 376.123 85.9681 383.401 78.7217C391.053 71.0889 392.359 70.4125 398.797 70.4125H404.022L404.116 76.886C404.209 85.0986 405.049 88.1904 407.102 88.5768C408.035 88.7701 411.86 87.7073 415.686 86.3546C422.497 83.7459 422.684 83.7459 427.256 85.2918C433.788 87.514 440.786 87.2242 446.944 84.5189C454.035 81.3304 455.342 82.1034 459.167 92.5382C463.086 103.07 467.005 105.582 472.604 100.944L475.403 98.6252L475.123 89.2532C474.843 79.1082 476.709 71.0889 482.401 58.5284C483.8 55.2433 486.32 49.7361 487.813 46.2578C490.799 39.3979 493.691 35.6298 496.21 35.5331C497.05 35.5331 500.689 35.4365 504.142 35.2433C507.687 35.1467 510.766 34.6636 511.14 34.1805C511.886 33.1177 514.592 31.3785 520.564 28.1901C526.162 25.1949 536.519 25.0016 539.319 27.9002C540.345 28.9631 541.185 30.2191 541.185 30.7988C541.185 31.2819 542.118 32.6346 543.331 33.6974C545.757 36.1129 550.049 35.823 556.674 32.6346C561.526 30.4124 563.019 28.1901 564.418 21.3301C565.911 13.8905 567.684 10.7987 571.416 9.54266C574.309 8.57648 575.242 8.76971 581.4 11.9581C590.638 16.7891 592.784 16.6924 600.622 10.6055C607.806 5.00159 610.232 4.51849 618.63 7.61029Z" fill="black"/>
</svg>
